<?xml version="1.0" encoding="UTF-8" standalone="no"?>
<!-- Created with Inkscape (http://www.inkscape.org/) -->

<svg
   xmlns:osb="http://www.openswatchbook.org/uri/2009/osb"
   xmlns:dc="http://purl.org/dc/elements/1.1/"
   xmlns:cc="http://creativecommons.org/ns#"
   xmlns:rdf="http://www.w3.org/1999/02/22-rdf-syntax-ns#"
   xmlns:svg="http://www.w3.org/2000/svg"
   xmlns="http://www.w3.org/2000/svg"
   xmlns:xlink="http://www.w3.org/1999/xlink"
   xmlns:sodipodi="http://sodipodi.sourceforge.net/DTD/sodipodi-0.dtd"
   xmlns:inkscape="http://www.inkscape.org/namespaces/inkscape"
   width="16"
   height="16"
   viewBox="0 0 16 16"
   version="1.1"
   id="SVGRoot"
   inkscape:version="0.92.3 (2405546, 2018-03-11)"
   sodipodi:docname="msbteditor_16.svg">
  <sodipodi:namedview
     id="base"
     pagecolor="#ffffff"
     bordercolor="#666666"
     borderopacity="1.0"
     inkscape:pageopacity="0.0"
     inkscape:pageshadow="2"
     inkscape:zoom="10.435"
     inkscape:cx="7.3081728"
     inkscape:cy="2.0538533"
     inkscape:document-units="px"
     inkscape:current-layer="layer1"
     showgrid="true"
     inkscape:window-width="1366"
     inkscape:window-height="720"
     inkscape:window-x="0"
     inkscape:window-y="0"
     inkscape:window-maximized="1"
     inkscape:grid-bbox="true"
     showguides="false"
     inkscape:snap-grids="true"
     inkscape:snap-page="false"
     objecttolerance="20">
    <inkscape:grid
       type="xygrid"
       id="grid6149"
       visible="true"
       dotted="false"
       enabled="true"
       empspacing="2"
       spacingx="1"
       spacingy="1" />
    <inkscape:grid
       type="xygrid"
       id="grid6161"
       enabled="true"
       originx="1"
       originy="1"
       empspacing="2"
       dotted="false" />
  </sodipodi:namedview>
  <defs
     id="defs18">
    <linearGradient
       inkscape:collect="always"
       id="linearGradient6271">
      <stop
         style="stop-color:#204a87;stop-opacity:1"
         offset="0"
         id="stop6267" />
      <stop
         style="stop-color:#3465a4;stop-opacity:1"
         offset="1"
         id="stop6269" />
    </linearGradient>
    <linearGradient
       inkscape:collect="always"
       id="linearGradient6171">
      <stop
         style="stop-color:#d3d7cf;stop-opacity:1"
         offset="0"
         id="stop6167" />
      <stop
         style="stop-color:#babdb6;stop-opacity:1"
         offset="1"
         id="stop6169" />
    </linearGradient>
    <linearGradient
       inkscape:collect="always"
       id="linearGradient6126">
      <stop
         style="stop-color:#eeeeec;stop-opacity:1"
         offset="0"
         id="stop6122" />
      <stop
         style="stop-color:#d3d7cf;stop-opacity:1"
         offset="1"
         id="stop6124" />
    </linearGradient>
    <linearGradient
       id="linearGradient4600"
       osb:paint="solid">
      <stop
         style="stop-color:#ffff00;stop-opacity:1;"
         offset="0"
         id="stop4598" />
    </linearGradient>
    <linearGradient
       inkscape:collect="always"
       xlink:href="#linearGradient6126"
       id="linearGradient6128"
       x1="13.002329"
       y1="47.994125"
       x2="13.002329"
       y2="1.01561"
       gradientUnits="userSpaceOnUse"
       gradientTransform="matrix(0.31921497,0,0,0.31250004,0.3388392,32.342232)" />
    <linearGradient
       inkscape:collect="always"
       xlink:href="#linearGradient6171"
       id="linearGradient6173"
       x1="7"
       y1="46"
       x2="7"
       y2="2"
       gradientUnits="userSpaceOnUse"
       gradientTransform="matrix(0.2727273,0,0,0.27272729,1.4545454,33.454545)" />
    <linearGradient
       inkscape:collect="always"
       xlink:href="#linearGradient6271"
       id="linearGradient6273"
       x1="10"
       y1="14"
       x2="10"
       y2="8"
       gradientUnits="userSpaceOnUse"
       gradientTransform="matrix(0.33333334,0,0,0.33333332,-0.6666663,32.333332)" />
    <linearGradient
       inkscape:collect="always"
       xlink:href="#linearGradient6271"
       id="linearGradient6273-0"
       x1="10"
       y1="14"
       x2="10"
       y2="8"
       gradientUnits="userSpaceOnUse"
       gradientTransform="matrix(0.33333334,0,0,0.33333332,-0.6666663,36.333332)" />
    <linearGradient
       inkscape:collect="always"
       xlink:href="#linearGradient6271"
       id="linearGradient6273-8"
       x1="10"
       y1="14"
       x2="10"
       y2="8"
       gradientUnits="userSpaceOnUse"
       gradientTransform="matrix(0.33333334,0,0,0.33333332,-0.6666663,40.333332)" />
  </defs>
  <metadata
     id="metadata21">
    <rdf:RDF>
      <cc:Work
         rdf:about="">
        <dc:format>image/svg+xml</dc:format>
        <dc:type
           rdf:resource="http://purl.org/dc/dcmitype/StillImage" />
        <dc:title></dc:title>
      </cc:Work>
    </rdf:RDF>
  </metadata>
  <g
     id="layer1"
     inkscape:groupmode="layer"
     inkscape:label="レイヤー 1"
     transform="translate(0,-32)">
    <rect
       style="opacity:1;fill:url(#linearGradient6128);fill-opacity:1;stroke:#2e3436;stroke-width:1;stroke-linecap:butt;stroke-linejoin:round;stroke-miterlimit:0;stroke-dasharray:none;stroke-dashoffset:0;stroke-opacity:1;paint-order:normal"
       id="rect6078"
       width="15"
       height="15.000001"
       x="0.5"
       y="32.5" />
    <rect
       style="opacity:1;fill:url(#linearGradient6173);fill-opacity:1;stroke:none;stroke-width:0.67021197;stroke-linecap:square;stroke-linejoin:round;stroke-miterlimit:0;stroke-dasharray:none;stroke-dashoffset:0;stroke-opacity:1;paint-order:fill markers stroke"
       id="rect6165"
       width="12"
       height="12"
       x="2"
       y="34" />
    <rect
       style="opacity:1;fill:url(#linearGradient6273);fill-opacity:1;stroke:none;stroke-width:0.99991012;stroke-linecap:butt;stroke-linejoin:miter;stroke-miterlimit:1.5;stroke-dasharray:none;stroke-dashoffset:0;stroke-opacity:1;paint-order:normal"
       id="rect6265"
       width="2"
       height="2"
       x="2"
       y="35" />
    <rect
       style="opacity:1;fill:url(#linearGradient6273-0);fill-opacity:1;stroke:none;stroke-width:0.99991012;stroke-linecap:butt;stroke-linejoin:miter;stroke-miterlimit:1.5;stroke-dasharray:none;stroke-dashoffset:0;stroke-opacity:1;paint-order:normal"
       id="rect6265-3"
       width="2"
       height="2"
       x="2"
       y="39" />
    <rect
       style="opacity:1;fill:url(#linearGradient6273-8);fill-opacity:1;stroke:none;stroke-width:0.99991012;stroke-linecap:butt;stroke-linejoin:miter;stroke-miterlimit:1.5;stroke-dasharray:none;stroke-dashoffset:0;stroke-opacity:1;paint-order:normal"
       id="rect6265-2"
       width="2"
       height="2"
       x="2"
       y="43" />
    <rect
       style="opacity:1;fill:#555753;fill-opacity:1;stroke:none;stroke-width:1;stroke-miterlimit:0;stroke-dasharray:none;stroke-opacity:0"
       id="rect2112"
       width="8"
       height="1"
       x="6"
       y="40" />
    <rect
       style="opacity:1;fill:#555753;fill-opacity:1;stroke:none;stroke-width:1;stroke-miterlimit:0;stroke-dasharray:none;stroke-opacity:0"
       id="rect2114"
       width="7"
       height="1"
       x="6"
       y="38" />
    <rect
       style="opacity:1;fill:#555753;fill-opacity:1;stroke:none;stroke-width:1;stroke-miterlimit:0;stroke-dasharray:none;stroke-opacity:0"
       id="rect2116"
       width="6"
       height="1"
       x="6"
       y="36" />
    <rect
       style="opacity:1;fill:#555753;fill-opacity:1;stroke:none;stroke-width:1;stroke-miterlimit:0;stroke-dasharray:none;stroke-opacity:0"
       id="rect2118"
       width="5"
       height="1"
       x="6"
       y="34" />
    <g
       aria-label="MSBT"
       style="font-style:normal;font-variant:normal;font-weight:bold;font-stretch:normal;font-size:48px;line-height:1.25;font-family:'Noto Sans';-inkscape-font-specification:'Noto Sans, Bold';font-variant-ligatures:normal;font-variant-caps:normal;font-variant-numeric:normal;text-align:start;letter-spacing:0px;word-spacing:0px;writing-mode:lr-tb;text-anchor:start;fill:#555753;fill-opacity:1;stroke:none"
       id="text2122">
      <path
         d="m 6.7163999,45.217999 -0.5504,-1.792001 h -0.0128 q 0.0032,0.064 0.0096,0.192 0.0064,0.128 0.0128,0.2752 0.0064,0.1472 0.0064,0.2624 v 1.062401 h -0.432 v -2.284801 h 0.6592 l 0.5408,1.7472 h 0.0096 l 0.5728,-1.7472 h 0.6592 v 2.284801 h -0.4512 v -1.081601 q 0,-0.1088 0.0032,-0.2496 0.0064,-0.1408 0.0096,-0.2656 0.0064,-0.128 0.0096,-0.192 h -0.0128 l -0.5888,1.788801 z"
         style="font-style:normal;font-variant:normal;font-weight:bold;font-stretch:normal;font-size:3.20000005px;font-family:'Noto Sans';-inkscape-font-specification:'Noto Sans, Bold';font-variant-ligatures:normal;font-variant-caps:normal;font-variant-numeric:normal;font-feature-settings:normal;text-align:start;writing-mode:lr-tb;text-anchor:start;fill:#555753"
         id="path2124" />
      <path
         d="m 10.11595,44.584398 q 0,0.304 -0.2208001,0.486401 -0.2176,0.1792 -0.6208,0.1792 -0.3616,0 -0.6464001,-0.1376 v -0.451201 q 0.1632001,0.0704 0.3360001,0.1312 0.176,0.0576 0.3488,0.0576 0.1792,0 0.2528,-0.0672 0.0768,-0.0704 0.0768,-0.176 0,-0.0864 -0.0608,-0.1472 -0.0576,-0.0608 -0.1568,-0.112 -0.0992,-0.0544 -0.2272,-0.1152 -0.08,-0.0384 -0.1728,-0.0896 -0.0928,-0.0544 -0.1792,-0.1312 -0.0832,-0.08 -0.1376001,-0.192 -0.0544,-0.112 -0.0544,-0.2688 0,-0.3072 0.2080001,-0.4768 0.208,-0.1728 0.5664,-0.1728 0.1792,0 0.3392,0.0416 0.16,0.0416 0.3392001,0.1184 l -0.1568001,0.3776 q -0.1568,-0.064 -0.2816,-0.0992 -0.1248,-0.0352 -0.256,-0.0352 -0.1376,0 -0.2112,0.064 -0.0736,0.064 -0.0736,0.1664 0,0.1216 0.1088,0.192 0.1088,0.0704 0.3232,0.1728 0.176,0.0832 0.2976,0.1728 0.1248,0.0896 0.1920001,0.2112 0.0672,0.1216 0.0672,0.3008 z"
         style="font-style:normal;font-variant:normal;font-weight:bold;font-stretch:normal;font-size:3.20000005px;font-family:'Noto Sans';-inkscape-font-specification:'Noto Sans, Bold';font-variant-ligatures:normal;font-variant-caps:normal;font-variant-numeric:normal;font-feature-settings:normal;text-align:start;writing-mode:lr-tb;text-anchor:start;fill:#555753"
         id="path2126" />
      <path
         d="m 10.53125,42.933198 h 0.7104 q 0.4544,0 0.688,0.128 0.2368,0.128 0.2368,0.4512 0,0.1952 -0.0928,0.3296 -0.0896,0.1344 -0.2592,0.1632 v 0.016 q 0.112,0.0256 0.2048,0.0832 0.096,0.0544 0.1504,0.1632 0.0544,0.1088 0.0544,0.288 0,0.3104 -0.2272,0.486401 -0.224,0.176 -0.6112,0.176 h -0.8544 z m 0.4832,0.9056 h 0.2816 q 0.2112,0 0.2912,-0.064 0.0832,-0.0672 0.0832,-0.1984 0,-0.1312 -0.096,-0.1888 -0.096,-0.0576 -0.304,-0.0576 h -0.256 z m 0,0.384 v 0.5952 h 0.3168 q 0.2176,0 0.304,-0.0832 0.0864,-0.0864 0.0864,-0.2272 0,-0.128 -0.0896,-0.2048 -0.0864,-0.08 -0.3168,-0.08 z"
         style="font-style:normal;font-variant:normal;font-weight:bold;font-stretch:normal;font-size:3.20000005px;font-family:'Noto Sans';-inkscape-font-specification:'Noto Sans, Bold';font-variant-ligatures:normal;font-variant-caps:normal;font-variant-numeric:normal;font-feature-settings:normal;text-align:start;writing-mode:lr-tb;text-anchor:start;fill:#555753"
         id="path2128" />
      <path
         d="m 13.56125,45.217999 h -0.4832 v -1.881601 h -0.6208 v -0.4032 h 1.7248 v 0.4032 h -0.6208 z"
         style="font-style:normal;font-variant:normal;font-weight:bold;font-stretch:normal;font-size:3.20000005px;font-family:'Noto Sans';-inkscape-font-specification:'Noto Sans, Bold';font-variant-ligatures:normal;font-variant-caps:normal;font-variant-numeric:normal;font-feature-settings:normal;text-align:start;writing-mode:lr-tb;text-anchor:start;fill:#555753"
         id="path2130" />
    </g>
  </g>
</svg>
